<?xml version="1.0" encoding="UTF-8"?>
<svg id="Layer_1" data-name="Layer 1" xmlns="http://www.w3.org/2000/svg" viewBox="0 0 220.29 132.4">
  <defs>
    <style>
      .cls-1 {
        stroke-width: 0px;
      }
    </style>
  </defs>
  <path class="cls-1" d="m215.34,61.05h-18.33c-2.3,0-4.3,1.59-4.82,3.84l-4.69,20.42c-1.16,5.03-8.28,5.15-9.6.15l-5.47-20.73c-.57-2.17-2.54-3.68-4.78-3.68h-17.86c-2.22,0-4.18,1.49-4.77,3.63l-5.94,21.56c-1.36,4.93-8.4,4.8-9.58-.17l-4.63-21.8c0-2.33-1.89-4.21-4.21-4.21h-46.77c-2.33,0-4.21,1.89-4.21,4.21v18.45c0,2.33,1.89,4.21,4.21,4.21h7.61c3.49,0,5.44,3.98,3.36,6.78-1.22,1.65-2.77,3.1-4.65,4.36-4.12,2.76-9.14,4.14-15.06,4.14-8.25,0-14.39-2.82-18.43-8.45-4.04-5.63-6.06-14.13-6.06-25.51,0-12.28,2-21.53,6.01-27.73,4.01-6.2,10.05-9.3,18.13-9.3,5.06,0,9.31,1.31,12.75,3.92,2.83,2.15,5.02,5.11,6.56,8.88.64,1.55,2.17,2.55,3.85,2.55h30.39c2.65,0,4.67-2.43,4.15-5.03-2.5-12.38-8.18-22.16-17.05-29.35C95.45,4.07,82.24,0,65.86,0,45.04,0,28.86,5.79,17.32,17.36,5.77,28.94,0,45.21,0,66.2s5.17,36.7,15.52,48.5c10.35,11.8,24.51,17.7,42.49,17.7,8.53,0,16.01-1.18,22.44-3.54,4.09-1.5,7.8-3.5,11.13-6.01,2.51-1.89,6.11-.5,6.67,2.59h0c.36,2,2.11,3.46,4.14,3.46h18.29c.13,0,.25-.03.37-.04.06,0,.12.02.19.02h22.59c2.25,0,4.22-1.52,4.79-3.71l4.85-18.78c1.27-4.92,8.25-4.95,9.56-.04l5.06,18.86c.58,2.16,2.54,3.66,4.78,3.66h23.08c2.13,0,4.01-1.36,4.69-3.37l19.4-57.95c1.07-3.2-1.31-6.51-4.69-6.51Z"/>
</svg>